<?xml version="1.0" standalone="no"?><svg xmlns="http://www.w3.org/2000/svg" viewBox="0 0 1440 320"><path fill="#0099ff" fill-opacity="1" d="M0,128L26.7,149.3C53.3,171,107,213,160,240C213.3,267,267,277,320,266.7C373.3,256,427,224,480,186.7C533.3,149,587,107,640,106.7C693.3,107,747,149,800,176C853.3,203,907,213,960,192C1013.3,171,1067,117,1120,96C1173.3,75,1227,85,1280,96C1333.3,107,1387,117,1413,122.7L1440,128L1440,0L1413.3,0C1386.7,0,1333,0,1280,0C1226.7,0,1173,0,1120,0C1066.7,0,1013,0,960,0C906.7,0,853,0,800,0C746.7,0,693,0,640,0C586.7,0,533,0,480,0C426.7,0,373,0,320,0C266.7,0,213,0,160,0C106.7,0,53,0,27,0L0,0Z"></path></svg>